<?xml version="1.0" encoding="UTF-8"?>
<svg width="24px" height="25px" viewBox="0 0 24 25" version="1.1" xmlns="http://www.w3.org/2000/svg" xmlns:xlink="http://www.w3.org/1999/xlink">
    <!-- Generator: Sketch 46.2 (44496) - http://www.bohemiancoding.com/sketch -->
    <title>Pokeball</title>
    <desc>Created with Sketch.</desc>
    <defs></defs>
    <g id="Pokemon-Game" stroke="none" stroke-width="1" fill="none" fill-rule="evenodd">
        <g id="Intro" transform="translate(-377.000000, -279.000000)">
            <g id="Pokeball" transform="translate(377.000000, 279.892377)">
                <path d="M19.6208633,19.7290512 C20.3633633,19.7307207 21.1058967,19.732457 21.8483633,19.7334253 C21.8575633,19.7334587 21.8667633,19.7237756 21.8793967,19.7166969 C21.8826633,19.7033075 21.8896633,19.6877143 21.8896633,19.6721545 C21.8887967,18.478126 21.8873967,17.2840974 21.88603,16.0900689 L23.9710967,16.0900689 L23.9710967,8.07425075 L21.88733,8.07425075 L21.88733,4.04093184 L19.6076633,4.04093184 L19.6076633,2.02807885 L15.9822633,2.02807885 L15.9822633,0.00557614002 L7.93106333,0.00557614002 L7.93106333,2.03445636 L4.30573,2.03445636 L4.30573,4.04714239 L2.02439667,4.04714239 L2.02439667,8.07939282 L-3.33333333e-06,8.07939282 L-3.33333333e-06,16.0901023 L2.02346333,16.0901023 L2.02346333,19.7392018 C2.36119667,19.7392018 2.67123,19.7406375 2.98123,19.7388345 C3.42976333,19.7362634 3.87826333,19.7313217 4.32679667,19.7274151 C4.32219667,19.7601707 4.31356333,19.792893 4.31353,19.825682 C4.31273,20.4918805 4.31276333,21.1581124 4.31346333,21.8243108 C4.31349667,21.8556975 4.32139667,21.8871175 4.32773,21.9337969 L8.05736333,21.9337969 L8.05736333,24.1076233 L15.8524967,24.1076233 L15.8524967,21.9336299 L19.60923,21.9336299 C19.60923,21.8328587 19.6088967,21.7561617 19.6092967,21.6794982 C19.6130967,21.0293269 19.6169967,20.379189 19.6208633,19.7290512" id="Fill-1" fill="#FFFFFF"></path>
                <path d="M8.07174888,21.9508215 L4.31978357,21.9508215 C4.3134459,21.9030977 4.30549867,21.8709745 4.30546514,21.8388855 C4.30476095,21.1577794 4.30472742,20.4766051 4.3055322,19.795499 C4.30556573,19.7620104 4.31421715,19.7285218 4.31887819,19.6950673 L4.31183633,19.7015192 L8.06681958,19.7015192 L8.06681958,21.955157 L8.07174888,21.9508215 Z M21.8430423,16.1434978 C21.8443963,17.3427498 21.8457833,18.5419684 21.846642,19.7411534 C21.846642,19.7567808 21.8396738,19.7724418 21.8364704,19.7858894 C21.8239542,19.7929988 21.8148394,19.802724 21.8057247,19.8026905 C21.0701383,19.801718 20.3344858,19.7999741 19.5988663,19.7982974 L19.6022018,19.8022545 C19.5972812,19.7583905 19.5880673,19.7144929 19.5880343,19.6706624 C19.5872417,18.5389167 19.5872417,17.407171 19.5880673,16.2754587 C19.5880673,16.2315947 19.5973802,16.1877307 19.6023669,16.1439002 L19.5985031,16.1476897 C20.3481579,16.1477903 21.0978788,16.1479244 21.8475336,16.148025 L21.8430423,16.1434978 Z M19.5840484,19.6950673 C19.5801868,20.3286471 19.5762919,20.9622269 19.5724969,21.5958393 C19.5720974,21.6705504 19.5724303,21.745294 19.5724303,21.8434987 L15.8206278,21.8434987 L15.8254881,21.8475336 L15.8254881,19.7049593 C15.92549,19.7049593 15.9968629,19.7050569 16.068269,19.7049593 C17.241294,19.7029419 18.4143523,19.7009244 19.5874439,19.6988744 L19.5840484,19.6950673 Z M4.30493274,19.7903309 C3.86563409,19.7942474 3.42633544,19.7992017 2.98706944,19.8017792 C2.68345191,19.8035868 2.37980174,19.8021474 2.04898922,19.8021474 L2.04898922,16.1437656 L2.04484305,16.1486194 C2.79768393,16.1486529 3.5505248,16.1487198 4.30336568,16.1487533 L4.29814215,16.1434978 C4.29575892,16.3880304 4.29112304,16.6325964 4.29144951,16.8771625 C4.29282068,17.8503387 4.29572627,18.8234814 4.29807686,19.7966576 L4.30493274,19.7903309 Z M15.9233523,21.9565776 L15.9233523,24.1076233 L8.07668128,24.1076233 L8.07668128,21.9567428 L8.07174888,21.9609386 C8.11630822,21.9589894 8.16086755,21.9553882 8.20542689,21.9553552 C10.7351423,21.9550909 13.2648577,21.9550909 15.7945396,21.9553552 C15.8390989,21.9553552 15.8836582,21.9588242 15.9282511,21.9606743 L15.9233523,21.9565776 Z M10.0228063,16.1434978 C11.3096959,16.1435989 12.596552,16.1437 13.8834081,16.1438012 L13.8834081,18.1883408 L10.0269311,18.1883408 C10.0209284,18.1514953 10.0098284,18.114852 10.0097614,18.0781413 C10.0086883,17.4662964 10.0087889,16.8544852 10.0095602,16.2426739 C10.0096272,16.209604 10.0182121,16.176534 10.0228063,16.1434978 M21.8475336,16.0358744 C21.0941925,16.0357755 20.3408182,16.0356435 19.5874439,16.0355446 L19.5874439,14.0986547 L21.8475336,14.0986547 L21.8475336,16.0358744 Z M4.30493274,16.0358744 C3.55156951,16.035842 2.79820628,16.035777 2.04484305,16.0357445 L2.04484305,14.0986547 L4.28431816,14.0986547 C4.28702974,14.1538025 4.29219155,14.2108989 4.29225689,14.2679629 C4.29287762,14.7982324 4.29225689,15.3284695 4.29317164,15.8587065 C4.29326965,15.9177517 4.30084902,15.9768293 4.30493274,16.0358744 M10.0307339,16.0358744 C10.023457,15.9874901 10.0098758,15.9391057 10.0098423,15.8906882 C10.0087021,14.5875253 10.0088698,13.2843624 10.0092722,11.9811332 C10.0092722,11.937521 10.0142352,11.8938756 10.0175551,11.838565 L13.8787133,11.838565 L13.8787133,16.0354105 L13.8834081,16.0302406 C12.5965789,16.0301412 11.3097497,16.0300418 10.0229205,16.0299424 L10.0307339,16.0358744 Z" id="Fill-15" fill="#000000"></path>
                <path d="M9.98075667,8.08815976 L11.9746567,8.08815976 L11.9746567,5.97807426 L9.97562333,5.97807426 L9.97562333,4.05552739 L7.92552333,4.05552739 L7.92552333,5.983422 L6.05892333,5.983422 L6.05892333,8.09451021 L7.93252333,8.09451021 L7.93252333,9.8367713 C7.96772333,9.84709913 7.98325667,9.85558867 7.99879,9.85562209 C8.62062333,9.85689218 9.24249,9.85578921 9.86429,9.85953263 C9.96769,9.86016767 9.98182333,9.80745899 9.98132333,9.72413447 C9.97945667,9.41236108 9.98072333,9.10062112 9.98075667,8.78881431 C9.98075667,8.56213687 9.98075667,8.33545943 9.98075667,8.08815976 L9.98075667,8.08815976 Z M2.02345667,16.1061638 L-1e-05,16.1061638 L-1e-05,8.08745787 L2.02442333,8.08745787 L2.02442333,4.05118235 L4.30572333,4.05118235 L4.30572333,2.0364872 L7.93105667,2.0364872 L7.93105667,0.00558170626 L15.9822567,0.00558170626 L15.9822567,2.03010333 L19.6076567,2.03010333 L19.6076567,4.0449656 L21.8873233,4.0449656 L21.8873233,8.08231067 L23.97109,8.08231067 L23.97109,16.1061304 L21.8860233,16.1061304 L21.8905567,16.1106091 L21.8905567,14.1477871 L19.62049,14.1477871 L19.62049,16.1103083 L19.6244233,16.1064981 C17.7058567,16.1056291 15.7872567,16.10476 13.8687233,16.1042253 C13.85229,16.1042253 13.83589,16.1088377 13.81949,16.111311 L13.81949,11.8785394 L9.98145667,11.8785394 C9.97812333,11.934323 9.97322333,11.9783751 9.97319,12.0223602 C9.97279,13.3367017 9.97262333,14.6510097 9.97379,15.9653511 C9.97382333,16.0141827 9.98732333,16.0629808 9.99455667,16.111779 C9.96699,16.1089714 9.93945667,16.1035902 9.91192333,16.1036237 C8.04789,16.1040916 6.18385667,16.104994 4.31985667,16.105863 L4.32519,16.1111105 C4.32102333,16.0503468 4.31329,15.9895496 4.31319,15.9287859 C4.31225667,15.3831156 4.31289,14.8374453 4.31225667,14.2917416 C4.31219,14.2330167 4.30692333,14.1742584 4.30415667,14.1175055 L2.01919,14.1175055 L2.01919,16.1109768 L2.02345667,16.1061638 Z" id="Fill-4" fill="#000000"></path>
                <path d="M8.03730063,21.955157 L8.03730063,19.7654694 L4.31167333,19.7654694 C4.30927786,18.8011936 4.30631679,17.8369509 4.3049527,16.8726751 C4.30458672,16.6303458 4.3093444,16.3880164 4.31173987,16.1457202 C6.17222459,16.1448578 8.03274258,16.1439623 9.89326057,16.1434979 C9.92074197,16.1434647 9.94825665,16.1487717 9.97573806,16.1515579 L9.96795277,16.1456539 C9.96339472,16.178159 9.95487748,16.2106974 9.95484421,16.2432357 C9.95404572,16.8451784 9.9539459,17.4471874 9.95504383,18.0491633 C9.95511037,18.0852838 9.9661229,18.1213712 9.97204504,18.1576244 L13.7981492,18.1576244 L13.7981492,16.1459192 L13.793458,16.1511267 C13.8098271,16.148639 13.8262294,16.1440949 13.8425985,16.1440949 C15.7575137,16.1445925 17.6724955,16.145488 19.5874439,16.1463504 C19.5823868,16.1897349 19.5730046,16.2330861 19.5730046,16.2764706 C19.5722061,17.3958093 19.5722061,18.5151813 19.5729713,19.6345532 C19.5730046,19.6779376 19.582287,19.7213221 19.5872776,19.7647065 C18.4148927,19.766763 17.2424746,19.7688526 16.0701231,19.7708759 C15.9987579,19.7709754 15.927426,19.7708759 15.8274815,19.7708759 L15.8274815,21.9548916 C15.7832983,21.9530673 15.7391151,21.9495515 15.694932,21.9495515 C13.1865714,21.9492861 10.6782108,21.9492861 8.16985019,21.9495515 C8.125667,21.9495846 8.08148382,21.9532 8.03730063,21.955157" id="Fill-17" fill="#FFFFFF"></path>
                <path d="M9.91239245,18.1251296 L13.7609203,18.1251296 L13.7609203,16.0984005 L9.91239245,16.0984005 L9.91239245,18.1251296 Z M19.5418654,14.0856546 L19.5418654,16.0816807 L13.7609203,16.0816807 L13.7609203,11.838565 L9.91239245,11.838565 L9.91239245,16.0816807 L4.24288795,16.0816807 L4.24288795,14.0856546 L1.93721973,14.0856546 L1.93721973,16.1317399 L4.24288795,16.1317399 L4.24288795,19.7191805 L7.98542188,19.7191805 L7.98542188,21.955157 L15.8205837,21.955157 L15.8205837,19.7191805 L19.5418654,19.7191805 L19.5418654,16.1317399 L21.8475336,16.1317399 L21.8475336,14.0856546 L19.5418654,14.0856546 Z" id="Fill-31" fill="#FFFFFF"></path>
                <polygon id="Fill-29" fill="#ED1C24" points="21.8475336 8.03552372 19.5554361 8.03552372 19.5554361 3.99360357 15.9528109 3.99360357 15.9528109 1.93721973 7.87841222 1.93721973 7.87841222 3.99360357 4.27238433 3.99360357 4.27238433 8.03552372 1.93721973 8.03552372 1.93721973 11.8136129 4.27238433 11.8136129 4.27238433 14.0986547 7.94629879 14.0986547 7.94629879 11.8136129 9.91013885 11.8136129 9.91013885 9.81065725 13.7798402 9.81065725 13.7798402 11.8136129 15.8814883 11.8136129 15.8814883 14.0986547 19.5554361 14.0986547 19.5554361 11.8136129 21.8475336 11.8136129"></polygon>
            </g>
        </g>
    </g>
</svg>